<?xml version="1.0" encoding="utf-8"?>
<!-- Generator: Adobe Illustrator 17.0.0, SVG Export Plug-In . SVG Version: 6.00 Build 0)  -->
<!DOCTYPE svg PUBLIC "-//W3C//DTD SVG 1.1//EN" "http://www.w3.org/Graphics/SVG/1.1/DTD/svg11.dtd">
<svg version="1.1" id="Слой_1" xmlns="http://www.w3.org/2000/svg" xmlns:xlink="http://www.w3.org/1999/xlink" x="0px" y="0px"
	 width="448px" height="448px" viewBox="0 0 448 448" enable-background="new 0 0 448 448" xml:space="preserve">
<g>
	<g>
		<path d="M374.282,101.726c4.929,11.077,2.666,20.539-6.29,28.579c-2.029,1.818-3.871,3.847-5.813,5.776
			c-4.039,4.014-6.438,4.459-11.961,1.954c-4.107,4.947-8.312,9.982-12.474,15.047c-8.448,10.279-16.847,20.607-25.319,30.861
			c-1.998,2.418-2.925,4.843-3.117,8.201c-0.637,11.213-1.36,22.487-3.259,33.539c-2.783,16.204-11.571,29.098-24.213,39.576
			c-14.447,11.973-28.87,23.996-42.847,36.501c-15.3,13.693-27.973,29.865-41.214,45.494c-6.76,7.984-13.711,15.826-21.003,23.316
			c-7.118,7.316-15.69,7.898-24.757,3.667c-26.093-26.093-52.185-52.185-78.272-78.272c-5.077-10.792-2.486-19.828,6.284-27.447
			c12.796-11.102,25.517-22.302,38.431-33.26c16.006-13.581,30.738-28.363,43.923-44.727c7.916-9.821,16.296-19.277,24.541-28.833
			c10.217-11.85,23.619-18.115,38.685-20.465c10.625-1.657,21.485-1.744,32.228-2.715c1.657-0.148,3.506-0.885,4.799-1.93
			c13.174-10.662,26.247-21.436,39.352-32.178c1.317-1.082,2.66-2.14,3.977-3.222c2.22-1.824,4.707-3.172,2.629-7.056
			c-1.324-2.474,0.353-5.312,2.363-7.359c3.339-3.414,6.593-6.951,10.192-10.081c7.619-6.642,16.154-6.963,25.116-3
			C355.599,83.042,364.943,92.387,374.282,101.726z M260.183,264.77c6.29-5.77,12.406-11.342,18.48-16.958
			c4.422-4.088,7.588-9.023,9.753-14.614c5.622-14.503,6.791-29.624,6.117-44.968c-0.155-3.519,0.662-6.451,2.876-9.135
			c6.661-8.071,13.273-16.179,19.908-24.275c7.409-9.054,14.819-18.108,22.333-27.292c-6.457-6.457-12.765-12.765-19.197-19.197
			c-14.67,12.023-29.37,23.681-43.595,35.901c-7.075,6.073-14.02,11.151-23.984,9.042c-1.305-0.278-2.728-0.043-4.088,0.031
			c-12.208,0.594-24.225,2.097-35.635,6.915c-9.512,4.02-15.641,11.905-22.37,19.104c-2.542,2.715-4.793,5.696-7.328,8.739
			c4.039,4.039,7.929,7.706,11.54,11.627c1.985,2.158,3.779,2.901,6.772,1.998c5.869-1.763,11.899-1.719,17.861-0.087
			c19.623,5.374,31.411,25.313,26.742,45.06c-0.328,1.379-0.551,3.482,0.204,4.311C250.77,255.567,255.297,259.884,260.183,264.77z
			 M209.253,278.283c2.412-2.412,4.967-4.707,7.217-7.267c6.401-7.279,12.264-14.936,15.715-24.163
			c3.63-9.703,2.115-18.306-5.275-25.722s-16.012-9.048-25.684-5.349c-2.431,0.934-4.843,1.985-7.112,3.265
			c-13.402,7.526-24.033,18.269-33.978,29.748c-5.832,6.735-10.86,14.027-13.668,22.611c-2.059,6.315-2.134,12.512,1.317,18.449
			c7.322,12.592,19.481,16.278,33.143,9.988C191.979,294.777,200.903,286.88,209.253,278.283z M120.251,253.477
			c-0.681,0.384-1.23,0.588-1.633,0.94c-10.161,8.949-20.378,17.842-30.416,26.927c-3.426,3.105-3.099,5.646,0.544,9.29
			c22.865,22.877,45.729,45.741,68.606,68.606c3.797,3.797,6.191,3.878,9.796,0.087c5.331-5.615,10.607-11.287,15.721-17.095
			c4.045-4.589,7.805-9.413,11.837-14.311c-3.667-3.667-7.261-7.001-10.526-10.625c-2.059-2.282-3.977-2.926-7.063-2.078
			c-7.328,2.022-14.682,1.62-21.732-1.41c-14.231-6.117-28.387-22.66-22.438-44.294c0.303-1.119,0.241-2.901-0.439-3.643
			C128.556,261.634,124.382,257.608,120.251,253.477z M140.128,253.143c11.979-17.818,26.761-32.352,44.214-44.288
			c-3.457-3.457-6.556-6.556-9.154-9.154c-14.528,15.047-28.919,29.958-43.471,45.03
			C134.092,247.107,136.936,249.951,140.128,253.143z M239.105,263.57c-12.01,17.824-26.742,32.395-44.176,44.313
			c3.197,3.197,6.042,6.042,8.362,8.362c15.09-14.583,29.989-28.975,45.012-43.477C245.643,270.107,242.538,267.002,239.105,263.57z
			 M326.803,92.567c9.629,9.629,19.129,19.129,28.771,28.771c0.742-0.742,1.292-1.305,1.849-1.849
			c5.727-5.628,5.764-8.3,0.173-13.89c-4.738-4.738-9.475-9.475-14.212-14.212c-6.92-6.92-9.332-6.858-16.043,0.384
			C327.199,91.923,327.094,92.127,326.803,92.567z"/>
	</g>
</g>
</svg>
