<?xml version="1.0" encoding="utf-8"?>
<!-- Generator: Adobe Illustrator 17.0.0, SVG Export Plug-In . SVG Version: 6.00 Build 0)  -->
<!DOCTYPE svg PUBLIC "-//W3C//DTD SVG 1.1//EN" "http://www.w3.org/Graphics/SVG/1.1/DTD/svg11.dtd">
<svg version="1.1" id="Слой_1" xmlns="http://www.w3.org/2000/svg" xmlns:xlink="http://www.w3.org/1999/xlink" x="0px" y="0px"
	 width="800px" height="600px" viewBox="0 0 800 600" enable-background="new 0 0 800 600" xml:space="preserve">
<g>
	<g>
		<path d="M402.344,280.078c1.294,0.497,1.876,1.445,1.802,2.819c-0.017,0.311-0.002,0.624-0.003,0.937
			c-0.002,0.651-0.16,0.881-0.809,1.125c0.068,0.732,0.135,1.479,0.208,2.225c0.148,1.514,0.304,3.028,0.448,4.542
			c0.034,0.357,0.155,0.628,0.411,0.915c0.855,0.958,1.708,1.928,2.448,2.975c1.085,1.535,1.417,3.288,1.242,5.157
			c-0.2,2.136-0.394,4.274-0.513,6.415c-0.13,2.344,0.153,4.676,0.346,7.01c0.099,1.192,0.171,2.388,0.187,3.583
			c0.016,1.167-0.63,1.907-1.705,2.298c-4.219,0-8.438,0-12.656,0c-1.283-0.462-1.804-1.402-1.711-2.727
			c0.137-1.932,0.26-3.866,0.418-5.796c0.196-2.392,0.192-4.778-0.065-7.167c-0.154-1.434-0.241-2.876-0.347-4.315
			c-0.132-1.784,0.445-3.374,1.473-4.782c0.725-0.993,1.596-1.878,2.386-2.825c0.122-0.146,0.212-0.355,0.232-0.544
			c0.203-1.927,0.389-3.855,0.58-5.783c0.019-0.194,0.042-0.388,0.061-0.582c0.032-0.327,0.124-0.637-0.358-0.783
			c-0.307-0.093-0.401-0.458-0.404-0.786c-0.006-0.546-0.029-1.095,0.009-1.639c0.079-1.153,0.743-1.869,1.788-2.273
			C399.323,280.078,400.834,280.078,402.344,280.078z M406.301,302.484c0.042-0.975,0.086-1.92,0.123-2.865
			c0.027-0.688-0.116-1.343-0.393-1.97c-0.718-1.627-1.846-2.944-3.141-4.13c-0.297-0.272-0.468-0.575-0.506-0.971
			c-0.114-1.191-0.235-2.381-0.353-3.572c-0.133-1.331-0.266-2.662-0.401-4.012c-1.044,0-2.064,0-3.104,0
			c-0.214,2.158-0.46,4.289-0.622,6.427c-0.081,1.063-0.232,2.035-1.208,2.67c-0.128,0.083-0.224,0.217-0.328,0.333
			c-0.939,1.035-1.789,2.128-2.322,3.44c-0.444,1.094-0.302,2.227-0.264,3.353c0.014,0.425,0.073,0.848,0.114,1.299
			c0.653,0,1.264-0.018,1.873,0.007c0.335,0.014,0.54-0.071,0.709-0.386c0.332-0.617,0.823-1.101,1.437-1.451
			c2.021-1.152,4.586-0.493,5.805,1.481c0.085,0.138,0.237,0.326,0.365,0.332C404.796,302.501,405.511,302.484,406.301,302.484z
			 M403.276,307.694c0-0.39,0.021-0.782-0.004-1.171c-0.071-1.106-0.216-2.199-0.683-3.224c-0.491-1.078-1.309-1.651-2.506-1.653
			c-1.197-0.002-2.026,0.563-2.509,1.644c-0.121,0.272-0.231,0.552-0.311,0.839c-0.475,1.692-0.466,3.42-0.342,5.152
			c0.073,1.016,0.256,2.012,0.723,2.933c0.344,0.677,0.839,1.184,1.598,1.385c1.61,0.426,2.891-0.259,3.487-1.872
			C403.213,310.424,403.296,309.064,403.276,307.694z M394.075,312.884c-0.024,0.086-0.052,0.147-0.056,0.208
			c-0.098,1.545-0.205,3.09-0.282,4.636c-0.026,0.528,0.206,0.707,0.795,0.707c3.698,0.001,7.395,0.001,11.093,0
			c0.614,0,0.814-0.187,0.799-0.785c-0.023-0.885-0.055-1.77-0.111-2.653c-0.044-0.698-0.13-1.392-0.2-2.114
			c-0.593,0-1.153,0.021-1.71-0.008c-0.351-0.018-0.558,0.085-0.739,0.403c-0.429,0.756-1.056,1.318-1.871,1.643
			c-1.645,0.656-4.127,0.463-5.395-1.767c-0.066-0.115-0.215-0.254-0.33-0.259C395.406,312.872,394.743,312.884,394.075,312.884z
			 M395.655,311.25c-0.472-2.409-0.452-4.779-0.006-7.155c-0.559,0-1.06,0-1.48,0c0.042,2.391,0.084,4.76,0.126,7.155
			C394.679,311.25,395.139,311.25,395.655,311.25z M404.5,304.091c0.47,2.412,0.457,4.781,0.011,7.154c0.517,0,0.977,0,1.352,0
			c0.041-2.399,0.082-4.767,0.124-7.154C405.557,304.091,405.055,304.091,404.5,304.091z M397.765,283.176c1.557,0,3.093,0,4.652,0
			c0-0.12-0.001-0.21,0-0.299c0.008-0.918-0.205-1.137-1.109-1.137c-0.766,0-1.532,0-2.298,0c-1.119,0-1.309,0.2-1.266,1.328
			C397.745,283.092,397.753,283.117,397.765,283.176z"/>
	</g>
</g>
</svg>
