<?xml version="1.0" encoding="utf-8"?>
<!-- Generator: Adobe Illustrator 17.0.0, SVG Export Plug-In . SVG Version: 6.00 Build 0)  -->
<!DOCTYPE svg PUBLIC "-//W3C//DTD SVG 1.1//EN" "http://www.w3.org/Graphics/SVG/1.1/DTD/svg11.dtd">
<svg version="1.1" id="Слой_1" xmlns="http://www.w3.org/2000/svg" xmlns:xlink="http://www.w3.org/1999/xlink" x="0px" y="0px"
	 width="800px" height="600px" viewBox="0 0 800 600" enable-background="new 0 0 800 600" xml:space="preserve">
<g>
	<g>
		<path d="M701.27,429.747c-0.137,64.333-39.378,116.6-98.046,132.601c-46.361,12.644-95.548-3.72-122.151-40.639
			c-26.735-37.102-23.637-88.933,7.606-119.719c20.412-20.114,44.585-26.419,72.06-17.001c21.686,7.434,36.253,28.416,35.238,49.944
			c-0.687,14.591-10.221,26.575-23.403,29.42c-12.28,2.649-19.581-4.505-16.666-16.58c1.359-5.631,1.044-10.544-3.694-14.503
			c-4.846-4.049-10.241-4.455-15.957-2.375c-16.157,5.881-25.043,26.046-19.701,44.605c7.082,24.605,34.389,41.657,60.931,38.048
			c39.361-5.352,69.051-38.88,70.689-78.634c2.299-55.796-42.296-98.232-89.463-104.896
			c-72.827-10.288-124.067,36.188-141.543,90.56c-4.986,15.511-8.083,31.673-13.694,46.931
			c-22.311,60.671-65.331,98.351-128.869,110.471c-58.51,11.161-122.168-18.918-151.889-69.632
			c-30.141-51.432-20.015-119.461,23.536-158.126c38.754-34.405,96.754-35.046,134.973-2.095
			c31.845,27.456,30.742,73.35,16.122,98.706c-13.031,22.6-42,33.244-65.696,24.176c-14.568-5.575-23.889-21.347-21.561-36.745
			c0.866-5.73,3.426-10.506,9.194-12.708c5.292-2.02,10.177-1.53,13.975,3.192c3.72,4.627,8.281,6.47,14.128,4.636
			c6.156-1.931,9.005-6.386,9.944-12.484c2.108-13.69-7.424-31.285-20.552-36.939c-20.453-8.808-38.872-4.383-55.101,9.906
			c-28.439,25.038-31.327,67.747-7.04,99.356c30.87,40.177,88.041,49.638,132.503,21.501c30.786-19.482,47.59-48.22,52.798-83.857
			c6.267-42.89-6.901-79.366-36.854-110.382c-14.334-14.843-29.21-29.441-41.572-45.859
			c-47.338-62.872-40.254-154.534,15.148-208.411c47.679-46.366,121.652-54.275,175.194-18.731
			c46.715,31.012,65.437,90.333,44.253,140.215c-15.17,35.721-48.534,57.909-86.646,57.261
			c-16.889-0.287-32.469-5.226-46.314-15.066c-25.272-17.962-33.393-54.812-17.988-81.261c9.71-16.672,28.413-24.021,44.799-17.602
			c9.583,3.754,14.548,10.726,14.075,19.577c-0.25,4.672-2.427,7.838-6.821,9.461c-0.936,0.346-1.879,0.673-2.822,1.001
			c-11.294,3.929-14.08,14.067-6.453,23.489c7.451,9.205,21.307,12.574,34.325,7.625c17.125-6.509,25.74-20.305,28.626-37.448
			c4.119-24.473-6.751-43.519-24.607-58.904c-28.197-24.295-70.835-24.639-101.992-0.311c-31.164,24.334-43.79,57.212-39.698,96.122
			c6.631,63.053,56.394,94.129,98.926,103.401c26.818,5.847,52.917,2.682,78.783-5.436c20.22-6.346,40.646-11.122,62.193-10.673
			c67.496,1.408,127.031,44.124,149.03,107.73C699.012,398.533,701.524,414.947,701.27,429.747z"/>
	</g>
</g>
</svg>
